# xmcd CD database file
# Copyright (C) 1997 Ti Kan
#
# Track frame offsets:
#  182
#  16325
#  26550
#  38400
#  54412
#  85612
#  100825
#  113475
#  127025
#  145462
#  160475
#  180237
#  202350
#
# Disc length: 3039 seconds
#
# Revision: 1
# Processed by: cddbd v1.4b41PL1 Copyright (c) Steve Scherf et al.
# Submitted via: CDWizzard Release:4.31
#
DISCID=a50bdd0d
DTITLE=Peter Green/Bob Brunning - Rarities
DYEAR=1900
DGENRE=
TTITLE0=Ride With Your Daddy Tonight
TTITLE1=Simple Simon
TTITLE2=Uranus (take one)
TTITLE3=It Takes Time
TTITLE4=If You Let Me Love You
TTITLE5=Uranus (take two)
TTITLE6=Own Up
TTITLE7=Somebody Watchin' Me
TTITLE8=Baby What You Want
TTITLE9=Street Walkin' Blues
TTITLE10=Hard Work
TTITLE11=Too Late For That Now
TTITLE12=Funky Money
EXTD=
EXTT0=
EXTT1=
EXTT2=
EXTT3=
EXTT4=
EXTT5=
EXTT6=
EXTT7=
EXTT8=
EXTT9=
EXTT10=
EXTT11=
EXTT12=
PLAYORDER=
